<?xml version="1.0" encoding="utf-8"?>
<!-- Generator: Adobe Illustrator 27.5.0, SVG Export Plug-In . SVG Version: 6.00 Build 0)  -->
<svg version="1.1" id="Capa_1" xmlns="http://www.w3.org/2000/svg" xmlns:xlink="http://www.w3.org/1999/xlink" x="0px" y="0px"
	 viewBox="0 0 800 800" style="enable-background:new 0 0 800 800;" xml:space="preserve">
<style type="text/css">
	.st0{fill:#077EFF;}
</style>
<g>
	<path class="st0" d="M591.3,170.6H35.4C15.9,170.6,0,186.4,0,205.9v583.5l125.5-125.5h465.8c19.5,0,35.4-15.9,35.4-35.4V205.9
		C626.7,186.4,610.8,170.6,591.3,170.6z M133.3,477c-29.4,0-53.3-23.9-53.3-53.3s23.9-53.3,53.3-53.3s53.3,23.9,53.3,53.3
		C186.7,453.1,162.7,477,133.3,477z M306.7,477c-29.4,0-53.3-23.9-53.3-53.3s23.9-53.3,53.3-53.3s53.3,23.9,53.3,53.3
		C360,453.1,336.1,477,306.7,477z M480,477c-29.4,0-53.3-23.9-53.3-53.3s23.9-53.3,53.3-53.3c29.4,0,53.3,23.9,53.3,53.3
		C533.3,453.1,509.4,477,480,477z"/>
	<path class="st0" d="M764.6,10.6H168.7c-19.5,0-35.4,15.9-35.4,35.4v98h458c34.2,0,62,27.8,62,62v337.8H800V45.9
		C800,26.4,784.1,10.6,764.6,10.6z"/>
</g>
</svg>
